<svg width="13" height="16" viewBox="0 0 13 16" fill="none" xmlns="http://www.w3.org/2000/svg">
<path d="M11.7 0H1.95C1.43283 0 0.936838 0.210714 0.571142 0.585786C0.205446 0.960859 0 1.46957 0 2V13C0.000860227 13.7954 0.309305 14.5579 0.857663 15.1203C1.40602 15.6828 2.14951 15.9991 2.925 16H13V1.33333C13 0.979711 12.863 0.640573 12.6192 0.390524C12.3754 0.140476 12.0448 0 11.7 0ZM3.9 2V10H2.925C2.59209 10.0033 2.26224 10.0655 1.95 10.184V2H3.9ZM11.05 14H2.925C2.66641 14 2.41842 13.8946 2.23557 13.7071C2.05272 13.5196 1.95 13.2652 1.95 13C1.95 12.7348 2.05272 12.4804 2.23557 12.2929C2.41842 12.1054 2.66641 12 2.925 12H11.05V14ZM5.85 10V2H11.05V10H5.85Z" fill="#727272"/>
</svg>
