<svg width="36" height="36" viewBox="0 0 36 36" fill="none" xmlns="http://www.w3.org/2000/svg">
<circle cx="17.9609" cy="17.9609" r="17.9609" fill="#1A1D1F"/>
<g clip-path="url(#clip0_3518_389)">
<path d="M16.9512 26C16.7328 25.9992 16.5172 25.951 16.3192 25.8587C15.9959 25.7147 15.7362 25.4577 15.5889 25.1359C15.4416 24.814 15.4168 24.4495 15.5192 24.1107L16.5599 20.6667H14.1079C13.7955 20.6671 13.4873 20.5943 13.2082 20.4541C12.929 20.3139 12.6865 20.1103 12.5002 19.8596C12.3138 19.6088 12.1888 19.3179 12.1352 19.0102C12.0815 18.7024 12.1007 18.3864 12.1912 18.0874L14.2072 11.4207C14.3301 11.0084 14.5834 10.647 14.9291 10.3908C15.2748 10.1347 15.6943 9.99755 16.1245 10H18.5865C18.8664 10.0003 19.142 10.0683 19.3899 10.1982C19.6377 10.3281 19.8504 10.5161 20.0098 10.7461C20.1692 10.9761 20.2705 11.2413 20.3051 11.519C20.3397 11.7967 20.3066 12.0786 20.2085 12.3407L19.0865 15.3334H20.7912C21.1546 15.3333 21.5111 15.4323 21.8225 15.6196C22.1338 15.807 22.3883 16.0756 22.5584 16.3966C22.7286 16.7177 22.8081 17.079 22.7884 17.4419C22.7687 17.8047 22.6505 18.1553 22.4465 18.456L18.1799 25.3227C18.048 25.5293 17.8664 25.6995 17.6518 25.8178C17.4372 25.9361 17.1963 25.9988 16.9512 26ZM16.1245 11.3334C15.9814 11.3332 15.842 11.3792 15.7269 11.4644C15.6119 11.5497 15.5274 11.6697 15.4859 11.8067L13.4699 18.4734C13.4397 18.573 13.4333 18.6783 13.4511 18.7808C13.4689 18.8834 13.5105 18.9803 13.5725 19.0639C13.6345 19.1475 13.7152 19.2154 13.8082 19.2622C13.9012 19.309 14.0038 19.3334 14.1079 19.3334H17.4579C17.562 19.3334 17.6646 19.3577 17.7576 19.4045C17.8505 19.4513 17.9313 19.5192 17.9933 19.6028C18.0553 19.6864 18.0969 19.7834 18.1147 19.8859C18.1325 19.9885 18.1261 20.0938 18.0959 20.1934L16.7979 24.488C16.7919 24.5038 16.7892 24.5207 16.7901 24.5376C16.791 24.5545 16.7953 24.571 16.8029 24.5861C16.8105 24.6012 16.8211 24.6146 16.8341 24.6253C16.8472 24.6361 16.8623 24.6441 16.8785 24.6487C16.8933 24.6581 16.9098 24.6644 16.9271 24.6671C16.9444 24.6697 16.9621 24.6687 16.979 24.6641C16.9959 24.6596 17.0117 24.6515 17.0252 24.6404C17.0388 24.6294 17.0499 24.6156 17.0579 24.6L21.3245 17.7334C21.3992 17.6322 21.4436 17.5119 21.4528 17.3865C21.462 17.2611 21.4356 17.1357 21.3765 17.0247C21.3218 16.9166 21.2381 16.8258 21.1347 16.7626C21.0313 16.6993 20.9124 16.6661 20.7912 16.6667H18.1245C18.0168 16.6668 17.9106 16.6407 17.8152 16.5908C17.7197 16.5408 17.6377 16.4685 17.5763 16.38C17.5149 16.2914 17.4759 16.1893 17.4626 16.0824C17.4493 15.9755 17.4621 15.8669 17.4999 15.766L18.9599 11.8727C18.9823 11.8123 18.9898 11.7475 18.9818 11.6836C18.9738 11.6197 18.9505 11.5586 18.9138 11.5057C18.8772 11.4528 18.8283 11.4094 18.7713 11.3794C18.7143 11.3494 18.6509 11.3336 18.5865 11.3334H16.1245Z" fill="white"/>
</g>
<defs>
<clipPath id="clip0_3518_389">
<rect width="16" height="16" fill="white" transform="translate(9.46094 10)"/>
</clipPath>
</defs>
</svg>
