<svg width="16" height="16" viewBox="0 0 16 16" fill="none" xmlns="http://www.w3.org/2000/svg">
<g clip-path="url(#clip0_1_1473)">
<path d="M8 16C3.58867 16 0 12.4113 0 8C0 3.58867 3.58867 0 8 0C12.4113 0 16 3.58867 16 8C16 12.4113 12.4113 16 8 16ZM8 2C4.692 2 2 4.69133 2 8C2 11.3087 4.692 14 8 14C11.308 14 14 11.3087 14 8C14 4.69133 11.3087 2 8 2ZM11.3333 8.33333C11.3333 7.78133 10.8853 7.33333 10.3333 7.33333H8.66667V4.33333C8.66667 3.78133 8.21933 3.33333 7.66667 3.33333C7.114 3.33333 6.66667 3.78133 6.66667 4.33333V8.33333C6.66667 8.88533 7.114 9.33333 7.66667 9.33333H10.3333C10.8853 9.33333 11.3333 8.88533 11.3333 8.33333Z" fill="#6F767E"/>
</g>
<defs>
<clipPath id="clip0_1_1473">
<rect width="16" height="16" fill="white"/>
</clipPath>
</defs>
</svg>
