<svg width="24" height="24" viewBox="0 0 24 24" fill="none" xmlns="http://www.w3.org/2000/svg">
<path d="M15 21V13C15 12.7348 14.8946 12.4804 14.7071 12.2929C14.5196 12.1054 14.2652 12 14 12H10C9.73478 12 9.48043 12.1054 9.29289 12.2929C9.10536 12.4804 9 12.7348 9 13V21" stroke="#6F767E" stroke-width="2" stroke-linecap="round" stroke-linejoin="round"/>
<path d="M3 9.78073C2.99993 9.4898 3.06333 9.20235 3.18579 8.93845C3.30824 8.67454 3.4868 8.44053 3.709 8.25273L10.709 2.25373C11.07 1.94864 11.5274 1.78125 12 1.78125C12.4726 1.78125 12.93 1.94864 13.291 2.25373L20.291 8.25273C20.5132 8.44053 20.6918 8.67454 20.8142 8.93845C20.9367 9.20235 21.0001 9.4898 21 9.78073V18.7807C21 19.3112 20.7893 19.8199 20.4142 20.1949C20.0391 20.57 19.5304 20.7807 19 20.7807H5C4.46957 20.7807 3.96086 20.57 3.58579 20.1949C3.21071 19.8199 3 19.3112 3 18.7807V9.78073Z" stroke="#6F767E" stroke-width="2" stroke-linecap="round" stroke-linejoin="round"/>
</svg>
