<svg width="16" height="16" viewBox="0 0 16 16" fill="none" xmlns="http://www.w3.org/2000/svg">
<g clip-path="url(#clip0_1_1463)">
<path d="M15.8667 7.65294C15.78 7.42027 13.6667 1.96094 8 1.96094C2.33333 1.96094 0.217333 7.42027 0.133333 7.65294L0 8.00094L0.133333 8.34894C0.22 8.5816 2.33333 14.0409 8 14.0409C13.6667 14.0409 15.7827 8.5816 15.8667 8.34894L16 8.00094L15.8667 7.65294ZM8 12.0576C4.388 12.0576 2.63933 9.04827 2.14 8.00094C2.64067 6.95094 4.39 3.94427 8 3.94427C11.61 3.94427 13.3587 6.95027 13.86 8.00094C13.3587 9.0516 11.61 12.0576 8 12.0576Z" fill="#6F767E"/>
<path d="M8.0026 10.6654C9.47536 10.6654 10.6693 9.47146 10.6693 7.9987C10.6693 6.52594 9.47536 5.33203 8.0026 5.33203C6.52984 5.33203 5.33594 6.52594 5.33594 7.9987C5.33594 9.47146 6.52984 10.6654 8.0026 10.6654Z" fill="#6F767E"/>
</g>
<defs>
<clipPath id="clip0_1_1463">
<rect width="16" height="16" fill="white"/>
</clipPath>
</defs>
</svg>
