<svg width="29" height="29" viewBox="0 0 29 29" fill="none" xmlns="http://www.w3.org/2000/svg">
<rect width="29" height="29" rx="6" fill="url(#paint0_linear_1_1448)"/>
<g clip-path="url(#clip0_1_1448)">
<path d="M11.6654 10.6679C11.6654 10.4911 11.7356 10.3216 11.8606 10.1965C11.9857 10.0715 12.1552 10.0013 12.332 10.0013H12.69C12.4557 9.59591 12.3322 9.13599 12.332 8.66777C12.3318 8.19955 12.4549 7.73953 12.6889 7.33397C12.9229 6.92841 13.2596 6.59162 13.665 6.35745C14.0705 6.12328 14.5305 6 14.9987 6C15.4669 6 15.9269 6.12328 16.3323 6.35745C16.7378 6.59162 17.0745 6.92841 17.3085 7.33397C17.5425 7.73953 17.6656 8.19955 17.6654 8.66777C17.6652 9.13599 17.5417 9.59591 17.3074 10.0013H17.6654C17.8422 10.0013 18.0117 10.0715 18.1368 10.1965C18.2618 10.3216 18.332 10.4911 18.332 10.6679C18.332 10.8447 18.2618 11.0143 18.1368 11.1393C18.0117 11.2644 17.8422 11.3346 17.6654 11.3346H12.332C12.1552 11.3346 11.9857 11.2644 11.8606 11.1393C11.7356 11.0143 11.6654 10.8447 11.6654 10.6679ZM20.332 19.3346H9.66536C9.31174 19.3346 8.9726 19.4751 8.72256 19.7251C8.47251 19.9752 8.33203 20.3143 8.33203 20.6679C8.33203 21.0216 8.47251 21.3607 8.72256 21.6107C8.9726 21.8608 9.31174 22.0013 9.66536 22.0013H20.332C20.6857 22.0013 21.0248 21.8608 21.2748 21.6107C21.5249 21.3607 21.6654 21.0216 21.6654 20.6679C21.6654 20.3143 21.5249 19.9752 21.2748 19.7251C21.0248 19.4751 20.6857 19.3346 20.332 19.3346ZM17.0434 12.6679H12.954C12.7114 16.1753 11.5154 18.0013 10.332 18.0013H19.6654C18.482 18.0013 17.286 16.1753 17.0434 12.6679Z" fill="white"/>
</g>
<defs>
<linearGradient id="paint0_linear_1_1448" x1="49.5417" y1="-29" x2="-3.10963" y2="10.338" gradientUnits="userSpaceOnUse">
<stop offset="0.336261" stop-color="#0167FF"/>
<stop offset="0.856031" stop-color="#B0D0FF"/>
</linearGradient>
<clipPath id="clip0_1_1448">
<rect width="16" height="16" fill="white" transform="translate(7 6)"/>
</clipPath>
</defs>
</svg>
