<svg width="16" height="16" viewBox="0 0 16 16" fill="none" xmlns="http://www.w3.org/2000/svg">
<path fill-rule="evenodd" clip-rule="evenodd" d="M7.99967 9.33203C8.73605 9.33203 9.33301 8.73508 9.33301 7.9987C9.33301 7.26232 8.73605 6.66536 7.99967 6.66536C7.26329 6.66536 6.66634 7.26232 6.66634 7.9987C6.66634 8.73508 7.26329 9.33203 7.99967 9.33203ZM10.6663 7.9987C10.6663 9.47146 9.47243 10.6654 7.99967 10.6654C6.52692 10.6654 5.33301 9.47146 5.33301 7.9987C5.33301 6.52594 6.52692 5.33203 7.99967 5.33203C9.47243 5.33203 10.6663 6.52594 10.6663 7.9987Z" fill="#6F767E"/>
<path fill-rule="evenodd" clip-rule="evenodd" d="M7.5862 2.0013L7.32783 2.77641C7.07785 3.52634 6.53288 4.04813 5.97707 4.35762C5.93754 4.37963 5.89839 4.40227 5.85965 4.42553C5.313 4.7537 4.58757 4.96538 3.81219 4.80671L3.01101 4.64276L3.27832 3.33649L4.0795 3.50044C4.45635 3.57756 4.84359 3.48035 5.17339 3.28237C5.22453 3.25166 5.27622 3.22176 5.32843 3.19269C5.6641 3.00579 5.94142 2.71926 6.06292 2.35477L6.32129 1.57967C6.50277 1.03521 7.01229 0.667969 7.5862 0.667969H8.41417C8.98808 0.667969 9.4976 1.03521 9.67908 1.57966L9.93745 2.35477C10.0589 2.71926 10.3363 3.00579 10.6719 3.19269C10.7241 3.22176 10.7758 3.25166 10.827 3.28236C11.1568 3.48035 11.544 3.57755 11.9209 3.50044L12.722 3.33649C13.2843 3.22144 13.8571 3.47907 14.144 3.97609L14.558 4.69314C14.845 5.19016 14.7817 5.81503 14.4009 6.24443L13.8576 6.85714C13.603 7.14427 13.493 7.52718 13.499 7.91089C13.5 7.97114 13.5 8.03144 13.499 8.09168C13.493 8.47539 13.603 8.8583 13.8576 9.14542L14.4009 9.75813C14.7817 10.1875 14.845 10.8124 14.558 11.3094L14.144 12.0265C13.8571 12.5235 13.2843 12.7811 12.722 12.6661L11.9209 12.5021C11.5441 12.425 11.1568 12.5222 10.827 12.7202C10.7759 12.7509 10.7242 12.7808 10.6719 12.8099C10.3363 12.9968 10.0589 13.2833 9.93745 13.6478L9.67908 14.4229C9.4976 14.9674 8.98808 15.3346 8.41417 15.3346H7.5862C7.01229 15.3346 6.50277 14.9674 6.32129 14.4229L6.06292 13.6478C5.94142 13.2833 5.6641 12.9968 5.32843 12.8099C5.2762 12.7808 5.2245 12.7509 5.17334 12.7202C4.84354 12.5222 4.4563 12.425 4.07945 12.5021L3.27832 12.6661C2.71606 12.7811 2.14326 12.5235 1.85631 12.0265L1.44232 11.3094C1.15537 10.8124 1.21865 10.1875 1.59942 9.75813L2.59702 10.6428L3.01101 11.3598L3.81214 11.1959C4.58753 11.0372 5.31296 11.2489 5.85962 11.5771C5.89837 11.6003 5.93753 11.623 5.97707 11.645C6.53288 11.9545 7.07785 12.4763 7.32783 13.2262L7.5862 14.0013L8.41417 14.0013L8.67254 13.2262C8.92252 12.4763 9.46749 11.9545 10.0233 11.645C10.0628 11.623 10.102 11.6003 10.1407 11.5771C10.6874 11.2489 11.4128 11.0372 12.1882 11.1959L12.9893 11.3598L13.4033 10.6428L12.86 10.0301C12.3368 9.44006 12.1558 8.70836 12.1659 8.07056C12.1666 8.0244 12.1666 7.97818 12.1659 7.93202C12.1558 7.29421 12.3368 6.5625 12.86 5.97251L13.4033 5.3598L12.9893 4.64276L12.1882 4.8067C11.4128 4.96537 10.6874 4.75369 10.1407 4.42552C10.102 4.40227 10.0628 4.37963 10.0233 4.35762C9.46749 4.04813 8.92252 3.52634 8.67254 2.77641L8.41417 2.0013L7.5862 2.0013ZM1.59942 9.75813L2.59702 10.6428L3.14037 10.03C3.66354 9.44003 3.8446 8.70834 3.8345 8.07054C3.83377 8.02439 3.83377 7.97819 3.8345 7.93204C3.84461 7.29424 3.66355 6.56254 3.14037 5.97255L2.59702 5.3598L3.01101 4.64276L3.27832 3.33649C2.71606 3.22144 2.14326 3.47907 1.85631 3.97609L1.44232 4.69314C1.15537 5.19016 1.21865 5.81503 1.59942 6.24443L2.14277 6.85717C2.39738 7.1443 2.50742 7.52721 2.50134 7.91092C2.50038 7.97115 2.50038 8.03143 2.50133 8.09165C2.50741 8.47536 2.39738 8.85826 2.14277 9.14539L1.59942 9.75813Z" fill="#6F767E"/>
</svg>
