<svg width="12" height="16" viewBox="0 0 12 16" fill="none" xmlns="http://www.w3.org/2000/svg">
<path d="M1.91553 10.3886C1.21243 9.73917 0.676124 8.92989 0.352012 8.02927C0.0279008 7.12865 -0.0744804 6.1632 0.0535331 5.21464C0.180111 4.25281 0.538023 3.33602 1.09659 2.54285C1.65516 1.74967 2.39773 1.10376 3.26065 0.660487C4.12357 0.217209 5.08111 -0.0102183 6.0512 -0.00230267C7.02128 0.00561301 7.97499 0.248636 8.83056 0.705936C9.68613 1.16324 10.4181 1.82117 10.9636 2.62336C11.5092 3.42555 11.8521 4.34805 11.9629 5.31182C12.0738 6.27558 11.9493 7.25185 11.6002 8.15696C11.251 9.06207 10.6876 9.86901 9.9582 10.5086C9.48852 10.9124 9.12386 11.4242 8.89553 12H6.6702V7.21064C7.05881 7.07325 7.39547 6.81915 7.63414 6.48311C7.87281 6.14706 8.00182 5.74548 8.00353 5.33331C8.00353 5.1565 7.9333 4.98693 7.80827 4.8619C7.68325 4.73688 7.51368 4.66664 7.33687 4.66664C7.16006 4.66664 6.99049 4.73688 6.86546 4.8619C6.74044 4.98693 6.6702 5.1565 6.6702 5.33331C6.6702 5.51012 6.59996 5.67969 6.47494 5.80471C6.34991 5.92973 6.18034 5.99997 6.00353 5.99997C5.82672 5.99997 5.65715 5.92973 5.53213 5.80471C5.4071 5.67969 5.33687 5.51012 5.33687 5.33331C5.33687 5.1565 5.26663 4.98693 5.1416 4.8619C5.01658 4.73688 4.84701 4.66664 4.6702 4.66664C4.49339 4.66664 4.32382 4.73688 4.1988 4.8619C4.07377 4.98693 4.00353 5.1565 4.00353 5.33331C4.00524 5.74548 4.13426 6.14706 4.37292 6.48311C4.61159 6.81915 4.94826 7.07325 5.33687 7.21064V12H3.04553C2.79066 11.387 2.40501 10.8371 1.91553 10.3886ZM3.33687 13.3333V13.54C3.33757 14.1922 3.59698 14.8175 4.05816 15.2787C4.51935 15.7399 5.14465 15.9993 5.79687 16H6.2102C6.86242 15.9993 7.48772 15.7399 7.9489 15.2787C8.41009 14.8175 8.66949 14.1922 8.6702 13.54V13.3333H3.33687Z" fill="#6F767E"/>
</svg>
